<svg xmlns="http://www.w3.org/2000/svg" width="183.383" height="82.344" viewBox="0 0 183.383 82.344">
  <g id="Grupo_6155" data-name="Grupo 6155" transform="translate(-695 -383.816)">
    <g id="Grupo_6141" data-name="Grupo 6141" transform="translate(343.146 -9.008)">
      <path id="Caminho_1606" data-name="Caminho 1606" d="M0,0H47.978V24.732H0Z" transform="translate(407.676 443.046)" fill="#06eb80"/>
      <path id="Caminho_1592" data-name="Caminho 1592" d="M377.988,434.532c3.33-1.484,5.792-4.046,5.792-8.4v-.1a8.256,8.256,0,0,0-2.413-6.05c-2.2-2.2-5.532-3.379-10.245-3.379H351.854v37.559h19.372c8.966,0,14.245-3.892,14.245-10.351v-.1C385.471,438.584,382.549,436.018,377.988,434.532Zm-2.92,7.84c0,2.2-1.844,3.434-5.024,3.434H362V424.953h6.763c3.125,0,4.715,1.175,4.715,3.225v.1c0,2.2-1.741,3.279-4.918,3.279h-9.1v7.326h10.483c3.483,0,5.124,1.332,5.124,3.385Z" transform="translate(0 21.01)"/>
      <path id="Caminho_1593" data-name="Caminho 1593" d="M438.4,419.622h0l-1.258-2.972H427.43l-15.736,37.211h10.76l3.208-7.256,12.988.1,3.4,7.156h10.965ZM427.988,439.75l2.336-5.89,1.993-5.03c.23.61.471,1.249.7,1.867l-.006.017,3.451,9.036Z" transform="translate(50.544 21.055)"/>
      <path id="Caminho_1594" data-name="Caminho 1594" d="M451.8,430.883c-.341-.085-.661-.168-.963-.243v0l-2.392-.68c-2.279-.72-2.94-1.42-2.94-2.626v-.1c0-1.2,1.1-2.189,3.212-2.319a9.305,9.305,0,0,1,1.49.04,18.779,18.779,0,0,1,9.108,3.549l5.028-7.105A22.227,22.227,0,0,0,450.4,416.58v-.006l-.158,0-.066,0v0c-.33,0-.948-.006-1.37,0v0l-.058,0c-.107,0-.2,0-.269.008l-.009.009c-8.173.324-13.118,5.1-13.118,11.553v.1c0,6.783,4.9,9.226,11.564,10.916v0l3.767.942c3.515.906,4.47,1.71,4.47,3.061v.1c0,1.52-1.422,2.488-4.163,2.488a12.507,12.507,0,0,1-2.183-.151v0a19.658,19.658,0,0,1-9.6-4.212l-5.581,6.7a24.851,24.851,0,0,0,14.567,5.879c.011,0,.019.017.032.019.124.011.281.021.452.028.043,0,.085.011.128.013v-.008c.418.015.91.021,1.37.021v.036h.458c8.834,0,14.67-4.417,14.67-11.83v-.1C465.307,435.351,460.129,432.661,451.8,430.883Z" transform="translate(69.93 20.984)"/>
      <g id="Grupo_6026" data-name="Grupo 6026" transform="translate(351.854 392.824)">
        <path id="Caminho_1595" data-name="Caminho 1595" d="M385.013,399.574a9.6,9.6,0,0,1,2.628,5.783A8.676,8.676,0,0,0,385.013,399.574Z" transform="translate(-322.551 -386.859)"/>
        <path id="Caminho_1596" data-name="Caminho 1596" d="M382.355,408.175c-.094.017-.194.015-.288.03C382.161,408.192,382.261,408.19,382.355,408.175Z" transform="translate(-325.155 -379.258)"/>
        <path id="Caminho_1597" data-name="Caminho 1597" d="M382.6,412.435c4.463-.953,7.265-4.1,7.265-9.053v-.149c0-.024-.007-.045-.007-.068A9.643,9.643,0,0,1,382.6,412.435Z" transform="translate(-324.683 -383.686)"/>
        <rect id="Retângulo_1779" data-name="Retângulo 1779" width="1.422" height="0.004" transform="translate(50.765 29.087)"/>
        <path id="Caminho_1598" data-name="Caminho 1598" d="M427.649,411.839v-.1c0-10.714-7.718-18.377-21.02-18.377H351.854v37.224h46.377v-.013h8.2c13.352,0,21.167-7.872,21.222-18.532Zm-10.611-.073c0,.021-.008.04-.008.06s.008.043.008.068v.149c0,4.956-2.8,8.1-7.265,9.053-.239.062-.473.124-.718.168-.094.015-.194.017-.288.03a9.5,9.5,0,0,1-1.4.141H404.04v0h-1.42v0H362.1v-19.34h45.267a9.623,9.623,0,0,1,6.947,2.967,8.676,8.676,0,0,1,2.628,5.783c.03.307.094.6.094.919Z" transform="translate(-351.854 -392.347)"/>
        <path id="Caminho_1599" data-name="Caminho 1599" d="M431.347,407.6c-.341-.087-.661-.17-.963-.245h0l-2.392-.682c-2.279-.72-2.94-1.42-2.94-2.624v-.1c0-1.2,1.1-2.191,3.212-2.321a9.515,9.515,0,0,1,1.49.04,18.811,18.811,0,0,1,9.11,3.549l5.026-7.105a22.22,22.22,0,0,0-13.941-4.811v-.008l-.158,0-.066,0v0c-.33,0-.946-.006-1.368,0v0l-.06,0c-.107,0-.2,0-.269.008l-.009.009c-8.173.324-13.116,5.1-13.116,11.555v.1c0,6.783,4.894,9.226,11.562,10.916v0l3.767.942c3.515.906,4.47,1.71,4.47,3.061v.1c0,1.522-1.422,2.488-4.163,2.488a12.69,12.69,0,0,1-2.181-.149v0a19.653,19.653,0,0,1-9.6-4.212l-5.58,6.7a24.829,24.829,0,0,0,14.565,5.879c.011,0,.019.019.032.019.126.013.283.023.452.03.043,0,.087.009.13.011v-.008c.418.015.91.021,1.368.021v.038h.459c8.833,0,14.669-4.419,14.669-11.832v-.1C444.852,412.066,439.673,409.374,431.347,407.6Z" transform="translate(-297.663 -392.419)"/>
        <path id="Caminho_1600" data-name="Caminho 1600" d="M417.874,395.795l-1.258-2.971h-9.709l-15.736,37.211h10.76l2.735-6.859h14.1l2.76,6.859H432.5l-14.621-34.24Zm-10.408,20.127,2.334-5.89L411.794,405c.23.61.471,1.249.7,1.867l-.006.017,3.451,9.036Z" transform="translate(-317.109 -392.824)"/>
        <path id="Caminho_1601" data-name="Caminho 1601" d="M382.938,408.086c-.243.053-.465.13-.718.168C382.465,408.21,382.7,408.148,382.938,408.086Z" transform="translate(-325.019 -379.337)"/>
        <path id="Caminho_1602" data-name="Caminho 1602" d="M386.495,403.625c0-.021.008-.04.008-.06v0c0-.315-.064-.612-.094-.919C386.438,402.972,386.493,403.281,386.495,403.625Z" transform="translate(-321.319 -384.146)"/>
        <path id="Caminho_1603" data-name="Caminho 1603" d="M381.6,408.332a9.5,9.5,0,0,0,1.4-.141,15.244,15.244,0,0,1-1.985.141Z" transform="translate(-326.086 -379.244)"/>
      </g>
      <path id="Caminho_1604" data-name="Caminho 1604" d="M427.772,416.568v-.055H389.8v.011c-10.792.42-18.747,8.716-18.747,18.826v.1c0,10.212,7.906,18.406,18.747,18.773v.008h.111v0h37.859v-.057c10.509-.68,18.2-8.846,18.2-18.781v-.1C445.969,425.261,438.327,417.191,427.772,416.568Zm7.891,18.931c0,5.028-3.4,9.341-8.577,9.645H389.914c-5.11-.418-8.552-4.775-8.552-9.793v-.1c0-5.026,3.4-9.341,8.576-9.643h37.173c5.112.416,8.552,4.773,8.552,9.791Z" transform="translate(16.969 20.934)"/>
      <path id="Caminho_1605" data-name="Caminho 1605" d="M396.111,431.209a9.5,9.5,0,0,1-9.092,9.713h-1.452a9.689,9.689,0,0,1-9.04-9.813v-.1a9.45,9.45,0,0,1,9.066-9.664v0h1.4v0a9.686,9.686,0,0,1,9.12,9.768Z" transform="translate(21.804 25.198)" fill="#fff"/>
    </g>
  </g>
</svg>
