<svg xmlns="http://www.w3.org/2000/svg" width="179.485" height="102.002" viewBox="0 0 179.485 102.002">
  <g id="Grupo_6158" data-name="Grupo 6158" transform="translate(-232.139 -488.263)">
    <rect id="Ret창ngulo_1808" data-name="Ret창ngulo 1808" width="54.565" height="23.902" transform="translate(277.055 536.799)" fill="#06eb80"/>
    <g id="Grupo_6156" data-name="Grupo 6156" transform="translate(232.762 577.14)">
      <path id="Caminho_1609" data-name="Caminho 1609" d="M233.916,538.549a5.306,5.306,0,0,1,7.313-.009,5.664,5.664,0,0,1,0,7.46,4.829,4.829,0,0,1-3.65,1.465A4.9,4.9,0,0,1,233.906,546a5.568,5.568,0,0,1,.009-7.451Zm.031,3.726a3.7,3.7,0,0,0,1,2.68A3.477,3.477,0,0,0,237.578,546a3.43,3.43,0,0,0,2.6-1.045,4.113,4.113,0,0,0,0-5.37,3.422,3.422,0,0,0-2.6-1.052,3.469,3.469,0,0,0-2.627,1.052A3.736,3.736,0,0,0,233.946,542.276Z" transform="translate(-232.481 -537.084)"/>
      <path id="Caminho_1610" data-name="Caminho 1610" d="M241.524,538.828h1.4v.859a2.461,2.461,0,0,1,2.057-.968,2.411,2.411,0,0,1,2.325,1.263,2.575,2.575,0,0,1,2.416-1.263,2.754,2.754,0,0,1,1.9.686,2.787,2.787,0,0,1,.772,2.183V546h-1.4v-4.225a1.76,1.76,0,0,0-.5-1.38,1.763,1.763,0,0,0-2.332-.007,1.77,1.77,0,0,0-.49,1.387V546h-1.405v-4.225a1.753,1.753,0,0,0-.5-1.38,1.719,1.719,0,0,0-1.185-.444,1.67,1.67,0,0,0-1.161.444,1.771,1.771,0,0,0-.492,1.38V546h-1.4Z" transform="translate(-225.062 -535.742)"/>
      <path id="Caminho_1611" data-name="Caminho 1611" d="M248.949,538.779h1.4v4.211a1.748,1.748,0,0,0,.546,1.394,1.9,1.9,0,0,0,1.294.475,1.851,1.851,0,0,0,1.278-.475,1.782,1.782,0,0,0,.53-1.394v-4.211h1.4v7.173H254v-.857a2.639,2.639,0,0,1-2.214.981,2.968,2.968,0,0,1-2-.715,2.7,2.7,0,0,1-.836-2.168Z" transform="translate(-218.97 -535.693)"/>
      <path id="Caminho_1612" data-name="Caminho 1612" d="M255.354,538.828v.874a2.633,2.633,0,0,1,2.214-.983,2.99,2.99,0,0,1,2,.71,2.68,2.68,0,0,1,.834,2.159V546H259V541.79a1.756,1.756,0,0,0-.546-1.394,1.9,1.9,0,0,0-1.294-.475,1.847,1.847,0,0,0-1.278.475,1.778,1.778,0,0,0-.53,1.394V546h-1.4v-7.173Z" transform="translate(-214.866 -535.742)"/>
      <path id="Caminho_1613" data-name="Caminho 1613" d="M258.824,543.7a3.723,3.723,0,0,1,.974-2.658A3.278,3.278,0,0,1,262.3,540a2.826,2.826,0,0,1,2.461,1.216v-4.069h1.4v10.135h-1.4V546.18a2.813,2.813,0,0,1-2.461,1.231,3.26,3.26,0,0,1-2.5-1.052A3.738,3.738,0,0,1,258.824,543.7Zm1.373,0a2.4,2.4,0,0,0,.63,1.715,2.374,2.374,0,0,0,3.306,0,2.651,2.651,0,0,0,.007-3.422,2.169,2.169,0,0,0-1.653-.663,2.193,2.193,0,0,0-1.66.663A2.378,2.378,0,0,0,260.2,543.7Z" transform="translate(-210.868 -537.028)"/>
      <path id="Caminho_1614" data-name="Caminho 1614" d="M265.214,539.747a3.562,3.562,0,0,1,2.651-1.045,3.517,3.517,0,0,1,2.627,1.045,4.009,4.009,0,0,1,0,5.347,3.483,3.483,0,0,1-2.627,1.061,3.527,3.527,0,0,1-2.651-1.061,3.988,3.988,0,0,1,0-5.347Zm.375,2.681a2.415,2.415,0,0,0,.63,1.708,2.147,2.147,0,0,0,1.646.677,2.125,2.125,0,0,0,1.629-.677,2.635,2.635,0,0,0,.007-3.415,2.146,2.146,0,0,0-1.637-.663,2.175,2.175,0,0,0-1.646.663A2.385,2.385,0,0,0,265.589,542.428Z" transform="translate(-206.469 -535.756)"/>
      <path id="Caminho_1615" data-name="Caminho 1615" d="M271.677,538.828h1.405v1.123a2.814,2.814,0,0,1,2.461-1.232,3.263,3.263,0,0,1,2.494,1.052,3.736,3.736,0,0,1,.983,2.66,3.7,3.7,0,0,1-.983,2.658,3.281,3.281,0,0,1-2.494,1.036,2.822,2.822,0,0,1-2.461-1.216v3.959h-1.405Zm2.043,5.3a2.133,2.133,0,0,0,1.638.67,2.187,2.187,0,0,0,1.66-.663,2.371,2.371,0,0,0,.63-1.706,2.406,2.406,0,0,0-.63-1.717,2.374,2.374,0,0,0-3.306,0,2.406,2.406,0,0,0-.63,1.717A2.336,2.336,0,0,0,273.72,544.129Z" transform="translate(-200.322 -535.742)"/>
      <path id="Caminho_1616" data-name="Caminho 1616" d="M277.892,539.756a3.367,3.367,0,0,1,2.572-1.045,3.217,3.217,0,0,1,2.5,1.045,3.813,3.813,0,0,1,.948,2.665v.406h-5.642a2.371,2.371,0,0,0,.732,1.527,2.2,2.2,0,0,0,1.558.577,2.3,2.3,0,0,0,2.028-.967l.983.7a3.434,3.434,0,0,1-3.011,1.482,3.5,3.5,0,0,1-2.634-1.052,4.074,4.074,0,0,1-.031-5.34Zm.375,2.15H282.6a2.637,2.637,0,0,0-.7-1.5,1.93,1.93,0,0,0-1.435-.57,2.06,2.06,0,0,0-1.489.562A2.463,2.463,0,0,0,278.267,541.906Z" transform="translate(-196.028 -535.749)"/>
      <path id="Caminho_1617" data-name="Caminho 1617" d="M283.487,547.286h-1.405V537.152H283.5Z" transform="translate(-191.785 -537.028)"/>
      <path id="Caminho_1618" data-name="Caminho 1618" d="M285.219,539.747a3.562,3.562,0,0,1,2.651-1.045,3.517,3.517,0,0,1,2.627,1.045,4.009,4.009,0,0,1,0,5.347,3.483,3.483,0,0,1-2.627,1.061,3.527,3.527,0,0,1-2.651-1.061,3.989,3.989,0,0,1,0-5.347Zm.373,2.681a2.417,2.417,0,0,0,.632,1.708,2.318,2.318,0,0,0,3.275,0,2.635,2.635,0,0,0,.007-3.415,2.149,2.149,0,0,0-1.637-.663,2.174,2.174,0,0,0-1.646.663A2.387,2.387,0,0,0,285.592,542.428Z" transform="translate(-190.056 -535.756)"/>
      <path id="Caminho_1619" data-name="Caminho 1619" d="M293.088,547.286h-1.405V537.152h1.42Z" transform="translate(-183.908 -537.028)"/>
      <path id="Caminho_1620" data-name="Caminho 1620" d="M293.79,542.415a3.725,3.725,0,0,1,.976-2.658,3.278,3.278,0,0,1,2.5-1.038,2.826,2.826,0,0,1,2.461,1.216v-1.107h1.4V546h-1.4v-1.107a2.813,2.813,0,0,1-2.461,1.231,3.26,3.26,0,0,1-2.5-1.052A3.74,3.74,0,0,1,293.79,542.415Zm1.373,0a2.4,2.4,0,0,0,.632,1.715,2.372,2.372,0,0,0,3.3,0,2.645,2.645,0,0,0,.007-3.422,2.162,2.162,0,0,0-1.651-.663,2.191,2.191,0,0,0-1.66.663A2.379,2.379,0,0,0,295.163,542.415Z" transform="translate(-182.179 -535.742)"/>
      <path id="Caminho_1621" data-name="Caminho 1621" d="M299.151,543.7a3.731,3.731,0,0,1,.974-2.658,3.278,3.278,0,0,1,2.5-1.038,2.832,2.832,0,0,1,2.463,1.216v-4.069h1.4v10.135h-1.4V546.18a2.818,2.818,0,0,1-2.463,1.231,3.26,3.26,0,0,1-2.5-1.052A3.746,3.746,0,0,1,299.151,543.7Zm1.373,0a2.4,2.4,0,0,0,.63,1.715,2.177,2.177,0,0,0,1.662.67,2.153,2.153,0,0,0,1.644-.67,2.645,2.645,0,0,0,.007-3.422,2.168,2.168,0,0,0-1.651-.663,2.2,2.2,0,0,0-1.662.663A2.378,2.378,0,0,0,300.524,543.7Z" transform="translate(-177.781 -537.028)"/>
      <path id="Caminho_1622" data-name="Caminho 1622" d="M305.542,539.747a3.56,3.56,0,0,1,2.651-1.045,3.513,3.513,0,0,1,2.625,1.045,4,4,0,0,1,0,5.347,3.479,3.479,0,0,1-2.625,1.061,3.525,3.525,0,0,1-2.651-1.061,3.983,3.983,0,0,1,0-5.347Zm.373,2.681a2.415,2.415,0,0,0,.63,1.708,2.151,2.151,0,0,0,1.647.677,2.124,2.124,0,0,0,1.628-.677,2.635,2.635,0,0,0,.007-3.415,2.142,2.142,0,0,0-1.635-.663,2.178,2.178,0,0,0-1.647.663A2.385,2.385,0,0,0,305.916,542.428Z" transform="translate(-173.382 -535.756)"/>
      <path id="Caminho_1623" data-name="Caminho 1623" d="M312.005,537.152h1.405v4.069A2.826,2.826,0,0,1,315.872,540a3.281,3.281,0,0,1,2.5,1.038,4.1,4.1,0,0,1-.009,5.316,3.256,3.256,0,0,1-2.494,1.052,2.813,2.813,0,0,1-2.461-1.231v1.107h-1.405Zm2.043,8.263a2.133,2.133,0,0,0,1.638.67,2.173,2.173,0,0,0,1.66-.67,2.634,2.634,0,0,0,0-3.422,2.193,2.193,0,0,0-1.66-.663,2.159,2.159,0,0,0-1.651.663,2.637,2.637,0,0,0,.013,3.422Z" transform="translate(-167.234 -537.028)"/>
      <path id="Caminho_1624" data-name="Caminho 1624" d="M318.268,539.747a3.56,3.56,0,0,1,2.651-1.045,3.517,3.517,0,0,1,2.627,1.045,4.009,4.009,0,0,1,0,5.347,3.483,3.483,0,0,1-2.627,1.061,3.525,3.525,0,0,1-2.651-1.061,3.989,3.989,0,0,1,0-5.347Zm.373,2.681a2.409,2.409,0,0,0,.632,1.708,2.318,2.318,0,0,0,3.275,0,2.641,2.641,0,0,0,.007-3.415,2.149,2.149,0,0,0-1.637-.663,2.172,2.172,0,0,0-1.646.663A2.379,2.379,0,0,0,318.641,542.428Z" transform="translate(-162.94 -535.756)"/>
      <path id="Caminho_1625" data-name="Caminho 1625" d="M322.59,538.828H324v.859a2.456,2.456,0,0,1,2.057-.968,2.408,2.408,0,0,1,2.323,1.263,2.577,2.577,0,0,1,2.416-1.263,2.754,2.754,0,0,1,1.9.686,2.787,2.787,0,0,1,.772,2.183V546h-1.4v-4.225a1.754,1.754,0,0,0-.5-1.38,1.761,1.761,0,0,0-2.33-.007,1.764,1.764,0,0,0-.492,1.387V546h-1.4v-4.225a1.754,1.754,0,0,0-.5-1.38,1.715,1.715,0,0,0-1.185-.444,1.673,1.673,0,0,0-1.161.444,1.777,1.777,0,0,0-.49,1.38V546H322.59Z" transform="translate(-158.55 -535.742)"/>
      <path id="Caminho_1626" data-name="Caminho 1626" d="M329.844,542.674a.8.8,0,1,1,1.591,0,.764.764,0,0,1-.218.563.832.832,0,0,1-1.147.007A.771.771,0,0,1,329.844,542.674Z" transform="translate(-152.598 -533.15)"/>
    </g>
    <path id="Caminho_1627" data-name="Caminho 1627" d="M257.4,529.368c3.217-1.434,5.6-3.91,5.6-8.121v-.1a7.977,7.977,0,0,0-2.33-5.846c-2.13-2.13-5.347-3.266-9.9-3.266H232.139v36.3h18.722c8.665,0,13.766-3.761,13.766-10v-.1C264.627,533.284,261.8,530.8,257.4,529.368Zm-2.824,7.577c0,2.13-1.782,3.319-4.855,3.319h-7.773V520.111h6.535c3.02,0,4.557,1.136,4.557,3.117v.1c0,2.13-1.68,3.169-4.753,3.169h-8.791v7.081h10.129c3.368,0,4.952,1.285,4.952,3.27Z" transform="translate(0 19.507)"/>
    <path id="Caminho_1628" data-name="Caminho 1628" d="M317.786,514.961h0l-1.214-2.871h-9.385l-15.208,35.961h10.4l3.1-7.014,12.552.1,3.288,6.918h10.6Zm-10.058,19.452,2.256-5.693,1.926-4.861c.222.59.455,1.207.681,1.8l-.005.016,3.335,8.733Z" transform="translate(49.097 19.549)"/>
    <path id="Caminho_1629" data-name="Caminho 1629" d="M331.477,525.843c-.33-.084-.639-.164-.93-.237h0l-2.312-.659c-2.2-.7-2.842-1.373-2.842-2.536v-.1c0-1.16,1.06-2.117,3.1-2.243a9.214,9.214,0,0,1,1.44.038,18.18,18.18,0,0,1,8.8,3.43l4.857-6.867a21.475,21.475,0,0,0-13.473-4.649v-.007l-.153,0-.064,0v0c-.319,0-.914-.005-1.323,0v0l-.056,0c-.1,0-.2,0-.26.007l-.009.009c-7.9.313-12.676,4.926-12.676,11.167v.1c0,6.554,4.73,8.915,11.174,10.548v0l3.641.91c3.4.876,4.32,1.653,4.32,2.958v.1c0,1.471-1.374,2.4-4.023,2.4a12.3,12.3,0,0,1-2.11-.144v0A19,19,0,0,1,319.309,536l-5.392,6.475a24,24,0,0,0,14.076,5.682c.011,0,.018.018.031.018.122.013.273.022.437.029.042,0,.084.009.124.011v-.007c.4.015.881.02,1.323.02v.036h.442c8.538,0,14.178-4.271,14.178-11.434v-.095C344.528,530.162,339.524,527.56,331.477,525.843Z" transform="translate(67.096 19.482)"/>
    <g id="Grupo_6157" data-name="Grupo 6157" transform="translate(232.139 488.263)">
      <path id="Caminho_1630" data-name="Caminho 1630" d="M265.3,495.013a9.291,9.291,0,0,1,2.541,5.591A8.4,8.4,0,0,0,265.3,495.013Z" transform="translate(-204.933 -482.725)"/>
      <path id="Caminho_1631" data-name="Caminho 1631" d="M262.63,503.615c-.091.015-.186.015-.277.027C262.442,503.629,262.54,503.628,262.63,503.615Z" transform="translate(-207.349 -475.667)"/>
      <path id="Caminho_1632" data-name="Caminho 1632" d="M262.886,507.564c4.313-.923,7.022-3.961,7.022-8.751v-.144c0-.024-.006-.042-.006-.066A9.322,9.322,0,0,1,262.886,507.564Z" transform="translate(-206.912 -479.779)"/>
      <rect id="Ret창ngulo_1809" data-name="Ret창ngulo 1809" width="1.374" height="0.004" transform="translate(49.061 28.112)"/>
      <path id="Caminho_1633" data-name="Caminho 1633" d="M305.389,506.66v-.1c0-10.355-7.458-17.76-20.315-17.76H232.139v35.976h44.82v-.015h7.921c12.9,0,20.457-7.606,20.509-17.91Zm-10.255-.073c0,.02-.006.038-.006.058s.006.042.006.066v.144c0,4.79-2.709,7.828-7.022,8.751-.229.058-.457.12-.694.162-.089.013-.187.015-.277.027a9.242,9.242,0,0,1-1.353.136h-3.215v0H281.2v0H242.042V497.243H285.79a9.305,9.305,0,0,1,6.714,2.865,8.4,8.4,0,0,1,2.541,5.591c.027.3.089.584.089.888Z" transform="translate(-232.139 -487.82)"/>
      <path id="Caminho_1634" data-name="Caminho 1634" d="M311.024,502.556l-.93-.237h0l-2.312-.659c-2.2-.694-2.844-1.373-2.844-2.536v-.1c0-1.16,1.061-2.117,3.1-2.243a9.214,9.214,0,0,1,1.44.038,18.158,18.158,0,0,1,8.8,3.432l4.857-6.869a21.484,21.484,0,0,0-13.471-4.649l0-.007-.153,0-.064,0v0c-.319,0-.914-.005-1.322,0v0l-.058,0c-.1,0-.2,0-.26.007l-.007.009c-7.9.315-12.678,4.926-12.678,11.167v.1c0,6.556,4.73,8.915,11.174,10.55v0l3.641.908c3.4.876,4.32,1.653,4.32,2.96v.1c0,1.471-1.374,2.4-4.023,2.4a12.094,12.094,0,0,1-2.108-.144v0a18.976,18.976,0,0,1-9.277-4.07l-5.392,6.475a24.013,24.013,0,0,0,14.076,5.683c.011,0,.02.016.031.016.122.013.273.022.439.029.04,0,.082.009.124.013v-.009c.4.015.879.02,1.322.02v.036h.444c8.536,0,14.178-4.271,14.178-11.433v-.1C324.075,506.874,319.069,504.273,311.024,502.556Z" transform="translate(-181.826 -487.887)"/>
      <path id="Caminho_1635" data-name="Caminho 1635" d="M297.263,491.136l-1.214-2.873h-9.383l-15.21,35.961h10.4L284.5,517.6h13.63l2.667,6.628h10.6l-14.13-33.089ZM287.2,510.585l2.257-5.693,1.924-4.861.683,1.8-.007.016,3.337,8.733Z" transform="translate(-199.881 -488.263)"/>
      <path id="Caminho_1636" data-name="Caminho 1636" d="M263.2,503.526c-.235.049-.45.124-.694.162C262.742,503.646,262.969,503.584,263.2,503.526Z" transform="translate(-207.225 -475.74)"/>
      <path id="Caminho_1637" data-name="Caminho 1637" d="M266.778,499.031c0-.02.006-.038.006-.058h0c0-.3-.062-.592-.089-.888C266.721,498.4,266.776,498.7,266.778,499.031Z" transform="translate(-203.788 -480.205)"/>
      <path id="Caminho_1638" data-name="Caminho 1638" d="M261.865,503.767a9.229,9.229,0,0,0,1.353-.137,14.451,14.451,0,0,1-1.919.137Z" transform="translate(-208.214 -475.655)"/>
    </g>
    <path id="Caminho_1639" data-name="Caminho 1639" d="M306.155,512v-.051h-36.7v.009c-10.431.408-18.119,8.425-18.119,18.2v.095c0,9.87,7.64,17.788,18.119,18.143v.007h.086l.022,0h36.588v-.055c10.155-.657,17.584-8.547,17.584-18.15V530.1C323.739,520.405,316.353,512.607,306.155,512Zm7.626,18.3c0,4.857-3.29,9.028-8.29,9.319H269.567c-4.941-.4-8.267-4.615-8.267-9.463v-.1c0-4.859,3.288-9.03,8.29-9.321h35.923c4.941.4,8.267,4.615,8.267,9.463Z" transform="translate(15.755 19.437)"/>
    <path id="Caminho_1640" data-name="Caminho 1640" d="M274.716,526.3c0,4.9-3.273,9.011-8.31,9.368h-1.327c-4.941-.4-8.267-4.615-8.267-9.465v-.1c0-4.857,3.288-9.028,8.289-9.319v0h1.28v0a9.154,9.154,0,0,1,8.336,9.419Z" transform="translate(20.243 23.395)" fill="#fff"/>
  </g>
</svg>
